<svg xmlns="http://www.w3.org/2000/svg" viewBox="0 0 120 120" fill="none">
  <rect width="120" height="120" rx="24" fill="#E74C3C"/>
  <path d="M30 85V35L60 20L90 35V85L60 100L30 85Z" fill="white" fill-opacity="0.95"/>
  <path d="M45 55C45 50 50 45 60 45C70 45 75 50 75 55C75 60 70 65 60 65C50 65 45 60 45 55Z" fill="#E74C3C"/>
  <circle cx="55" cy="55" r="3" fill="white"/>
  <circle cx="65" cy="55" r="3" fill="white"/>
  <path d="M52 62C52 62 55 66 60 66C65 66 68 62 68 62" stroke="white" stroke-width="2" stroke-linecap="round"/>
</svg>
